HIERARCHY
ROOT hips
{
  OFFSET 0 10.680822821525009 1.3929502295107734
  CHANNELS 6 Xposition Yposition Zposition Yrotation Xrotation Zrotation
  JOINT spine
  {
    OFFSET -7.042017322922631e-31 0.6058489940359625 0
    CHANNELS 3 Yrotation Xrotation Zrotation
    JOINT chest
    {
      OFFSET 0 1.2699794144455032 0
      CHANNELS 3 Yrotation Xrotation Zrotation
      JOINT upperChest
      {
        OFFSET 0 1.217799211677689 0
        CHANNELS 3 Yrotation Xrotation Zrotation
        JOINT neck
        {
          OFFSET 0 1.5248826104153006 0
          CHANNELS 3 Yrotation Xrotation Zrotation
          JOINT head
          {
            OFFSET 0 0.8197772727844447 0
            CHANNELS 3 Yrotation Xrotation Zrotation
            JOINT leftEye
            {
              OFFSET 0.2793952361220866 0.6769952096623495 0.1830357412467788
              CHANNELS 3 Yrotation Xrotation Zrotation
              End Site
              {
                OFFSET 0.2793952361220866 0.6769952096623495 0.1830357412467788
              }
            }
            JOINT rightEye
            {
              OFFSET -0.27939522230689573 0.676995205357064 0.18303631459760622
              CHANNELS 3 Yrotation Xrotation Zrotation
              End Site
              {
                OFFSET -0.27939522230689573 0.676995205357064 0.18303631459760622
              }
            }
          }
        }
        JOINT leftShoulder
        {
          OFFSET 0.41486978509200423 1.1670505408695453 0
          CHANNELS 3 Yrotation Xrotation Zrotation
          JOINT leftUpperArm
          {
            OFFSET 0.9737926108153417 0 0
            CHANNELS 3 Yrotation Xrotation Zrotation
            JOINT leftLowerArm
            {
              OFFSET 2.5269332222665284 0 0
              CHANNELS 3 Yrotation Xrotation Zrotation
              JOINT leftHand
              {
                OFFSET 2.4263782738425914 0 0
                CHANNELS 3 Yrotation Xrotation Zrotation
                JOINT leftIndexProximal
                {
                  OFFSET 0.724320348022514 0.08170607082582437 0.20360061616140124
                  CHANNELS 3 Yrotation Xrotation Zrotation
                  JOINT leftIndexIntermediate
                  {
                    OFFSET 0.36548960630744587 -0.010566596513783999 -0.01414783573280308
                    CHANNELS 3 Yrotation Xrotation Zrotation
                    JOINT leftIndexDistal
                    {
                      OFFSET 0.22502819650693362 -0.007863819831430696 -0.007567681939621526
                      CHANNELS 3 Yrotation Xrotation Zrotation
                      End Site
                      {
                        OFFSET 0.22502819650693362 -0.007863819831430696 -0.007567681939621526
                      }
                    }
                  }
                }
                JOINT leftLittleProximal
                {
                  OFFSET 0.6720322998298205 0.08170601055037707 -0.3230036039466837
                  CHANNELS 3 Yrotation Xrotation Zrotation
                  JOINT leftLittleIntermediate
                  {
                    OFFSET 0.34583592281688713 5.476543019078406e-8 1.3869203337180114e-7
                    CHANNELS 3 Yrotation Xrotation Zrotation
                    JOINT leftLittleDistal
                    {
                      OFFSET 0.19925728062053938 0.003098047439490381 0.0038303983709246925
                      CHANNELS 3 Yrotation Xrotation Zrotation
                      End Site
                      {
                        OFFSET 0.19925728062053938 0.003098047439490381 0.0038303983709246925
                      }
                    }
                  }
                }
                JOINT leftMiddleProximal
                {
                  OFFSET 0.7300436596551069 0.0817073395107144 0.022661722987926763
                  CHANNELS 3 Yrotation Xrotation Zrotation
                  JOINT leftMiddleIntermediate
                  {
                    OFFSET 0.40758254347686607 -0.0000012383587111308714 2.408460318820138e-7
                    CHANNELS 3 Yrotation Xrotation Zrotation
                    JOINT leftMiddleDistal
                    {
                      OFFSET 0.2514490105498507 0.0000013869132886590307 9.738618134136345e-8
                      CHANNELS 3 Yrotation Xrotation Zrotation
                      End Site
                      {
                        OFFSET 0.2514490105498507 0.0000013869132886590307 9.738618134136345e-8
                      }
                    }
                  }
                }
                JOINT leftRingProximal
                {
                  OFFSET 0.7217261161191838 0.08170601902187746 -0.15043395722184966
                  CHANNELS 3 Yrotation Xrotation Zrotation
                  JOINT leftRingIntermediate
                  {
                    OFFSET 0.37808807487521556 0.0000013754022405443322 2.2046919317952884e-7
                    CHANNELS 3 Yrotation Xrotation Zrotation
                    JOINT leftRingDistal
                    {
                      OFFSET 0.21812105442344254 -0.002713483731960231 -0.004991354517454624
                      CHANNELS 3 Yrotation Xrotation Zrotation
                      End Site
                      {
                        OFFSET 0.21812105442344254 -0.002713483731960231 -0.004991354517454624
                      }
                    }
                  }
                }
                JOINT leftThumbProximal
                {
                  OFFSET 0.10793587079521427 -0.1652791240518252 -0.07775251827190094
                  CHANNELS 3 Yrotation Xrotation Zrotation
                  JOINT leftThumbIntermediate
                  {
                    OFFSET 0.40355819082296684 -0.017484006740276614 0.3177776014416309
                    CHANNELS 3 Yrotation Xrotation Zrotation
                    JOINT leftThumbDistal
                    {
                      OFFSET 0.2318764658022603 -0.018510186824293617 0.21396001800186287
                      CHANNELS 3 Yrotation Xrotation Zrotation
                      End Site
                      {
                        OFFSET 0.2318764658022603 -0.018510186824293617 0.21396001800186287
                      }
                    }
                  }
                }
              }
            }
          }
        }
        JOINT rightShoulder
        {
          OFFSET -0.4148697850920044 1.1670505408695453 0
          CHANNELS 3 Yrotation Xrotation Zrotation
          JOINT rightUpperArm
          {
            OFFSET -0.9737926108153414 0 0
            CHANNELS 3 Yrotation Xrotation Zrotation
            JOINT rightLowerArm
            {
              OFFSET -2.5269332222665293 0 0
              CHANNELS 3 Yrotation Xrotation Zrotation
              JOINT rightHand
              {
                OFFSET -2.42637827384259 0 0
                CHANNELS 3 Yrotation Xrotation Zrotation
                JOINT rightIndexProximal
                {
                  OFFSET -0.724320348022514 0.08170607082582437 0.20360061616140124
                  CHANNELS 3 Yrotation Xrotation Zrotation
                  JOINT rightIndexIntermediate
                  {
                    OFFSET -0.36548960630744587 -0.010566596513783999 -0.01414783573280308
                    CHANNELS 3 Yrotation Xrotation Zrotation
                    JOINT rightIndexDistal
                    {
                      OFFSET -0.22502819650693362 -0.007863819831430696 -0.007567681939621526
                      CHANNELS 3 Yrotation Xrotation Zrotation
                      End Site
                      {
                        OFFSET -0.22502819650693362 -0.007863819831430696 -0.007567681939621526
                      }
                    }
                  }
                }
                JOINT rightLittleProximal
                {
                  OFFSET -0.6720322998298205 0.08170601055037707 -0.3230036039466837
                  CHANNELS 3 Yrotation Xrotation Zrotation
                  JOINT rightLittleIntermediate
                  {
                    OFFSET -0.34583592281688713 5.476543019078406e-8 1.3869203337180114e-7
                    CHANNELS 3 Yrotation Xrotation Zrotation
                    JOINT rightLittleDistal
                    {
                      OFFSET -0.19925728062053938 0.003098047439490381 0.0038303983709246925
                      CHANNELS 3 Yrotation Xrotation Zrotation
                      End Site
                      {
                        OFFSET -0.19925728062053938 0.003098047439490381 0.0038303983709246925
                      }
                    }
                  }
                }
                JOINT rightMiddleProximal
                {
                  OFFSET -0.7300436596551069 0.0817073395107144 0.022661722987926763
                  CHANNELS 3 Yrotation Xrotation Zrotation
                  JOINT rightMiddleIntermediate
                  {
                    OFFSET -0.40758254347686607 -0.0000012383587111308714 2.408460318820138e-7
                    CHANNELS 3 Yrotation Xrotation Zrotation
                    JOINT rightMiddleDistal
                    {
                      OFFSET -0.2514490105498507 0.0000013869132886590307 9.738618134136345e-8
                      CHANNELS 3 Yrotation Xrotation Zrotation
                      End Site
                      {
                        OFFSET -0.2514490105498507 0.0000013869132886590307 9.738618134136345e-8
                      }
                    }
                  }
                }
                JOINT rightRingProximal
                {
                  OFFSET -0.7217261161191838 0.08170601902187746 -0.15043395722184966
                  CHANNELS 3 Yrotation Xrotation Zrotation
                  JOINT rightRingIntermediate
                  {
                    OFFSET -0.37808807487521556 0.0000013754022405443322 2.2046919317952884e-7
                    CHANNELS 3 Yrotation Xrotation Zrotation
                    JOINT rightRingDistal
                    {
                      OFFSET -0.21812105442344254 -0.002713483731960231 -0.004991354517454624
                      CHANNELS 3 Yrotation Xrotation Zrotation
                      End Site
                      {
                        OFFSET -0.21812105442344254 -0.002713483731960231 -0.004991354517454624
                      }
                    }
                  }
                }
                JOINT rightThumbProximal
                {
                  OFFSET -0.10793587079521427 -0.1652791240518252 -0.07775251827190094
                  CHANNELS 3 Yrotation Xrotation Zrotation
                  JOINT rightThumbIntermediate
                  {
                    OFFSET -0.40355819082296684 -0.017484006740276614 0.3177776014416309
                    CHANNELS 3 Yrotation Xrotation Zrotation
                    JOINT rightThumbDistal
                    {
                      OFFSET -0.2318764658022603 -0.018510186824293617 0.21396001800186287
                      CHANNELS 3 Yrotation Xrotation Zrotation
                      End Site
                      {
                        OFFSET -0.2318764658022603 -0.018510186824293617 0.21396001800186287
                      }
                    }
                  }
                }
              }
            }
          }
        }
      }
    }
  }
  JOINT leftUpperLeg
  {
    OFFSET 0.8486251390888677 -0.4421577294694363 0
    CHANNELS 3 Yrotation Xrotation Zrotation
    JOINT leftLowerLeg
    {
      OFFSET 0 -4.10147812638609 0
      CHANNELS 3 Yrotation Xrotation Zrotation
      JOINT leftFoot
      {
        OFFSET -0.0002543926476658853 -4.77292286812444 0.007402811231737388
        CHANNELS 3 Yrotation Xrotation Zrotation
        JOINT leftToes
        {
          OFFSET 0 -0.7027875951174846 1.2062924140498823
          CHANNELS 3 Yrotation Xrotation Zrotation
          End Site
          {
            OFFSET 0 -0.7027875951174846 1.2062924140498823
          }
        }
      }
    }
  }
  JOINT rightUpperLeg
  {
    OFFSET -0.8486251390888677 -0.4421577294694363 0
    CHANNELS 3 Yrotation Xrotation Zrotation
    JOINT rightLowerLeg
    {
      OFFSET 0 -4.10147812638609 0
      CHANNELS 3 Yrotation Xrotation Zrotation
      JOINT rightFoot
      {
        OFFSET 0.0002543926476658853 -4.77292286812444 0.007402811231737388
        CHANNELS 3 Yrotation Xrotation Zrotation
        JOINT rightToes
        {
          OFFSET 0 -0.7027875951174846 1.2062924140498823
          CHANNELS 3 Yrotation Xrotation Zrotation
          End Site
          {
            OFFSET 0 -0.7027875951174846 1.2062924140498823
          }
        }
      }
    }
  }
}
MOTION
Frames: 4
Frame Time: 0.03333333333333333
0.36008867621421814 -2.22426364031163 -3.8155150413513184 -24.28164539934034 -78.91984972405285 10.350750033160738 6.646827873027853 39.29160350413006 11.17129920238822 0.7618137337651881 40.51744953120441 3.4277580567926083 0 0 0 1.437786482173697 9.50926397281545 -5.852331909464964 5.041969558509238 13.663784988386038 -2.531786612526947 0 0 0 0 0 0 -1.2491509047260496 6.477308550762782 -20.629846512014392 -5.267264747030647 -9.57118569126417 -58.404072250421265 -45.388376776489565 0.2203650842562048 0.5268986106867117 -13.159629453184014 39.507366356722756 14.029172059597416 -1.4133812226053024 0.09981876289179609 0.36996123118984564 0.34815177775634815 0.011835792438517173 -3.895424123126891 -1.3197387471396251 0.17286609359343447 14.922113945431446 16.557351629626456 2.94606618229256 -11.078485913087048 3.550717282365457 1.4284911264567661 -43.82225064990924 -0.7584140142421814 0.05644195768599018 8.510466608007889 4.657824498999733 0.17854492900539054 -2.920033726201813 2.4472224703673366 0.6219082461718369 -28.51534813153662 -1.3212046541138167 0.17325964501900376 14.93902299448795 11.10209107761997 0.32596101052205334 -1.3252738801706705 3.3181798583921047 1.218612135560383 -40.325218220722576 -1.3211938780378465 0.17325336174984896 14.9390420231228 6.8902880317930135 9.095979175122515 20.47554079313826 9.878826618178165 6.760902206089038 -1.8781208307652817 -29.461233698018166 -12.749039601098797 11.058178820409802 12.869873226301154 3.922662084210148 3.4669701905789316 9.826317099507845 0.7636979535788069 54.54122240670065 45.93582216067938 0.2253800151735509 -0.5318127716310547 8.394066948967698 19.886399830373303 -29.890295005273387 -2.4807504666947087 0.052071931992475534 1.262119826613901 -1.0894510692680701 0.1542917452516261 16.12161679629551 -0.2645426802424151 0.008949290414457847 3.866547151282221 -14.190615834106435 7.532554510772793 34.27896918274023 -2.559265964044006 0.9494450824468729 40.70250558550595 -0.8431362411983231 0.09166049073817793 12.409697663545916 -6.626404080768032 0.6412023548992998 8.155415290249243 -1.037029383396477 0.13954156970162768 15.326765282559382 0.18155614767562234 0.004194424842641906 -2.6523893626380683 -8.617654205135015 2.580601993013354 24.578459065181512 -1.6488146422708125 0.36326780570662615 24.84787603161645 -0.23305774571558324 0.006935148733938256 3.4057779329946256 11.037130600983318 -7.203085179721857 -4.360764500200993 -16.098894443013993 3.262429393512287 -10.076458959136785 1.6085512866894454 -6.624255598225519 -13.282041262482672 12.98753266495506 -16.497824535573827 3.1209639246990593 -1.2303372912188455 14.384318541864571 1.9085346910881194 -1.3657992735569335 13.653201123983061 -15.732714925576577 -0.000001924409840049163 -2.84875351450649 0.000002051891955968431 -56.8352166789044 -70.48708362911174 53.32123975695734 -168.1925397712665 49.85235621868377 -174.11931563938148 -1.5841043882856645 20.49325004063712 3.127940440436531 0.0000034383294246271404 -1.6956733615948305 -2.961628745712306e-7
0.35975024104118347 -2.231188269523056 -3.8156025409698486 -25.45071095586098 -79.44679981493438 11.817383049858066 6.123713867962247 39.15680756189535 10.72980820612589 0.6643425436179193 39.98152563617042 3.3634030535576787 0 0 0 1.360843558249126 9.90452530216419 -5.810714834736844 4.845591532724484 14.569507338438225 -2.6905631649434 0 0 0 0 0 0 -1.340574047272418 6.831643091848235 -20.67959004152524 -4.315378879862029 -9.388199006581905 -58.871359293593805 -45.8084502547826 0.22422220915630986 0.5307042191120089 -12.40580408451066 39.783689798231755 13.805425829134249 -1.4133740744155143 0.09981682188782663 0.36996083099118954 0.34814734888724824 0.011834815267877764 -3.8954194382201752 -1.3197495232217877 0.1728639724898782 14.922110645489791 16.557340821663114 2.946056992079723 -11.078489268976279 3.5507315600588596 1.428494862877688 -43.82223615944781 -0.7584190830815885 0.05643805567172939 8.510474207365139 4.657799543891011 0.1785385256719544 -2.9200296760228017 2.4472410241014044 0.6219151834913799 -28.515355763946342 -1.3212162837402543 0.17326160603931365 14.939031243692625 11.102082699526155 0.3259589027342544 -1.325272919916722 3.3181611026193805 1.218629428387933 -40.32524971309633 -1.3212115892121643 0.17324681167521208 14.939033773918444 6.859506862933904 9.042526379464803 20.569370365483334 9.878844148283703 6.760906504850557 -1.8781142839725613 -29.461221305639818 -12.749051856063799 11.058181210205468 12.662600755821531 4.448191133919832 3.8669117762845175 9.162060390028392 0.7091171903645371 54.5005729923839 46.060723095550735 0.226561753812432 -0.5329325080680248 8.702241948091697 20.732894104390716 -29.05872272192719 -2.555339038713385 0.05583343356258818 2.0016468932194975 -1.1452591461812 0.1708802471779645 16.9720292861208 -0.20802969488216294 0.005511280650298148 3.0394207455493545 -13.680558803632124 7.64280375517308 36.250706958616 -2.5679834013841467 0.9569394773821254 40.869839456784575 -0.7147893073507912 0.06565802922218222 10.497493901176881 -6.641693475629433 0.8250262494456877 10.886994684435237 -1.0587617440222312 0.14555188797073892 15.655961334076522 0.23820150593535597 0.007243324753889725 -3.48096457521789 -8.558641825980164 2.837094760277987 27.460088964744088 -1.5933002699554755 0.33809339113093206 23.958715051875316 -0.12657668885983192 0.0020477444079639883 1.84874265526476 11.035187066536817 -6.997628739689268 -4.268450918690997 -17.771855526260655 3.6811207126415764 -10.550325740852927 3.0610538442029025 -6.859098521755854 -13.137805440685876 13.02945915958977 -15.827403316839657 2.9308485364977774 -1.3300792905543284 14.61509931338938 1.9163334528808562 -1.366507149381063 13.640995036893111 -15.775014447627681 -0.000001955819416142097 -2.8586753558423883 -0.000008587562698335983 -52.88802965509625 -70.20158400549441 49.27885645806678 -168.54070275025364 49.82537179077766 -174.35265982156994 -1.5400257713111043 20.015147190569355 2.878994114948071 -0.0000012514105752017829 -1.914195568286262 -0.0000010274826576350877
0.3590467870235443 -2.2380137166055754 -3.8163952827453613 -27.3347565438277 -80.34233161860556 14.170016767962176 5.277079343107963 38.5707686482845 10.163759819262777 0.5297781470666101 38.71466475616288 3.352288803587219 0 0 0 1.2173560172945366 10.674066189124595 -5.839644388760225 4.3382216824360995 16.517692881320045 -2.9807744067764723 0 0 0 0 0 0 -1.63280227320631 7.463071985811784 -20.452286120989605 -2.7379349865300875 -8.942373755772921 -60.03939586633637 -46.13669397109574 0.22728333160495023 0.5336503348065798 -11.072850646193306 40.279222341049284 13.328205958184055 -1.4133928517497893 0.09981804251918885 0.36994933194978863 0.34815842105999023 0.011841130191446838 -3.895411114102673 -1.3197340526087529 0.17285322022908722 14.922120545314451 16.557320844646902 2.946068533277251 -11.078494302809979 3.5507296421597716 1.4284883508297996 -43.822233694719856 -0.7584262328129424 0.056453503646137757 8.510473362992126 4.657795714579372 0.17856057715148443 -2.9200205098280887 2.4472367588752277 0.6219123018355686 -28.51535726443808 -1.3212004930547898 0.17325622990880474 14.939040373281978 11.102066123534325 0.3259669603534376 -1.3252813488124686 3.3181779401881086 1.21860914667662 -40.32523045431419 -1.3212124427627274 0.17326239311549252 14.939035423759368 6.780897815124849 8.906442270827842 20.80817402462803 9.878824924168994 6.76089876707985 -1.8781387737508024 -29.46121633708111 -12.74903785038956 11.058190660325867 12.364499710731138 5.532050460384474 4.589047189603514 7.115937629566483 0.48907512470394693 54.77126229116878 46.448251594467806 0.23016339986649198 -0.5363906144607266 9.263440380914876 22.82580395206353 -27.04138502610916 -2.7190597813352295 0.06869889956629166 3.662510795325161 -1.2685389400140759 0.2107345427459556 18.863824573537702 -0.092875712135447 0.0011054922140272723 1.3565304748852363 -12.611903785643982 7.795916294547141 40.54814201410961 -2.5908790102587935 0.976943361113659 41.31369007914275 -0.4443740117165415 0.025248010195008677 6.503790217283331 -6.655486042195802 1.2030106342845863 16.79573390211813 -1.110210279613218 0.16036466009494918 16.437450597798307 0.3533238907702729 0.015944698294647907 -5.16691019463428 -8.404156429915027 3.3622340852650496 33.69217673062651 -1.4791231450306361 0.2894836717847022 22.146608374269366 0.09522013031011499 0.0011588276371469555 -1.3907868499687919 10.963600662866414 -6.506098403901886 -4.070421501470425 -21.43063639802467 4.525013032875171 -11.64059787918028 6.080374484286592 -7.358393230496483 -12.857278337169868 13.023116893540706 -14.555211833274916 2.6489034014692665 -1.5400415722690386 15.078762106640971 1.938266842701524 -1.3813243339197978 13.660363587588002 -15.928940708921179 -0.000009847638806991041 -2.874797061861291 0.000016759435930487654 -45.01754759897263 -69.30886564396508 41.25822096698444 -169.24678510104124 49.999569186952215 -174.77507864374272 -1.3975666663843265 19.090781278872313 2.5080888425749 0.0000013075817372191483 -2.3388031395580615 0.000002716804018832191
0.35623329877853394 -2.2369980534586027 -3.8200910091400146 -28.19164198390082 -80.97609113093823 15.257192956510481 4.629889233951978 37.570000382198636 9.997167726843092 0.39646756109920145 37.179140316823464 3.4020296687725997 0 0 0 1.133157169625435 11.341831639723587 -5.992634176523528 3.8973668164596384 18.415053608500518 -3.259220401053336 0 0 0 0 0 0 -1.685993804533989 8.059212827310366 -19.93543734939862 -2.436297856398622 -8.099861492330628 -60.941053708380345 -45.85524544283274 0.2246291955034255 0.5311048482008117 -9.642739625030195 40.12548771615046 13.187896723080325 -1.4133630854072465 0.09981366025249519 0.36995749600238725 0.3481502036402227 0.011837566686913652 -3.8954202900214 -1.3197481362013166 0.17286616029480417 14.92210481616708 16.557339182753182 2.946068533277251 -11.078494302809979 3.550731986258656 1.428492621025134 -43.82222886456588 -0.7584299677472226 0.0564528699857021 8.510459347623458 4.657805777920424 0.17855050524159297 -2.9200286101862147 2.4472339864781976 0.6219016824002778 -28.515361895864327 -1.3212094553357538 0.17326644855885528 14.939046203190047 11.102079348288493 0.3259609838411951 -1.3252753738990337 3.3181600369504545 1.2186300688630298 -40.325218220722576 -1.3212103088863183 0.17324863929277856 14.93902299448795 6.682023753361912 8.73607222443414 21.1069488488582 9.878830006196456 6.7609056450982505 -1.8781334031854575 -29.461224156490406 -12.74903347361652 11.058183975020764 11.947169149053707 6.639441685371079 5.413671135674118 4.846707024269773 0.111577700629678 55.122943744314625 46.88944623312448 0.23429708565206364 -0.5403232758547085 9.647054030888382 25.23584555342549 -24.588664184956944 -2.8888756729279077 0.08881568673991988 5.430745683560953 -1.3970446449063674 0.25715964676445785 20.8587494796642 0.015124163801559077 0.000032385465033928245 -0.220834668278606 -11.57938536391701 7.835091028648991 44.9609595132034 -2.6193234162567918 1.0021620463932688 41.868169471469294 -0.17921558404249335 0.004092475180992611 2.618246226591482 -6.646002113954825 1.5596735718748975 22.81232596349331 -1.1682445308092406 0.17797982149795194 17.323189519001343 0.460937250655727 0.027170400155155306 -6.747310770495654 -8.213573547183033 3.8539715526475753 40.03642337512939 -1.3703727925312112 0.24710046829787577 20.442590175061856 0.3095058752438588 0.012234878266092264 -4.524773851989209 10.802395983342146 -5.961884609084686 -3.880435490927291 -25.21010834755566 5.292578313948919 -12.837141732256326 8.997888750724677 -7.853962710116264 -12.611539838447467 12.920156400608127 -13.596117411642291 2.5684612662421107 -1.445997002864577 15.544276390053023 2.0752845861712292 -1.4412858421083228 13.944687899165928 -16.133826704906916 0.0000034699138800986547 -2.87870073860774 -0.000004505863612961555 -38.70665809854312 -68.05455533694185 34.947794200038054 -169.79506467453248 50.31074462594114 -175.04374297221247 -1.2151701800710335 18.24224788035402 2.2517053079905365 -0.000005192106107346347 -2.3926151867589747 0.00000938944945023079
